<?xml version="1.0" encoding="utf-8"?>
<!-- Generator: Adobe Illustrator 21.0.2, SVG Export Plug-In . SVG Version: 6.00 Build 0)  -->
<svg version="1.1" id="レイヤー_1" xmlns="http://www.w3.org/2000/svg" xmlns:xlink="http://www.w3.org/1999/xlink" x="0px"
	 y="0px" viewBox="0 0 130 40" style="enable-background:new 0 0 130 40;" xml:space="preserve">
<style type="text/css">
	.st0{clip-path:url(#SVGID_2_);}
	.st1{clip-path:url(#SVGID_4_);}
	.st2{clip-path:url(#SVGID_6_);}
	.st3{clip-path:url(#SVGID_8_);fill:#FFFFFF;}
	.st4{clip-path:url(#SVGID_10_);}
	.st5{clip-path:url(#SVGID_12_);fill:#FFFFFF;}
	.st6{clip-path:url(#SVGID_14_);}
	.st7{fill:#FFFFFF;}
	.st8{font-family:'MyriadPro-Regular';}
	.st9{font-size:10px;}
	.st10{font-family:'MyriadPro-Semibold';}
	.st11{font-size:18px;}
</style>
<g>
	<defs>
		<path id="SVGID_1_" d="M0,4c0-2.209,1.788-4,3.997-4h122.005C128.21,0,130,1.796,130,4v32c0,2.209-1.788,4-3.997,4H3.997
			C1.79,40,0,38.204,0,36V4z"/>
	</defs>
	<clipPath id="SVGID_2_">
		<use xlink:href="#SVGID_1_"  style="overflow:visible;"/>
	</clipPath>
	<g class="st0">
		<defs>
			<rect id="SVGID_3_" width="130" height="40"/>
		</defs>
		<clipPath id="SVGID_4_">
			<use xlink:href="#SVGID_3_"  style="overflow:visible;"/>
		</clipPath>
		<rect x="-5" y="-5" class="st1" width="140" height="50"/>
	</g>
</g>
<g>
	<defs>
		<path id="SVGID_5_" d="M22.168,10.178c0.866-1.099,1.497-2.611,1.334-4.136c-1.294,0.048-2.835,0.868-3.753,1.974
			c-0.827,0.953-1.545,2.525-1.339,4.003C19.817,12.114,21.263,11.285,22.168,10.178"/>
	</defs>
	<clipPath id="SVGID_6_">
		<use xlink:href="#SVGID_5_"  style="overflow:visible;"/>
	</clipPath>
	<g class="st2">
		<defs>
			<rect id="SVGID_7_" width="130" height="40"/>
		</defs>
		<clipPath id="SVGID_8_">
			<use xlink:href="#SVGID_7_"  style="overflow:visible;"/>
		</clipPath>
		<rect x="13.375" y="1.042" class="st3" width="15.153" height="15.985"/>
	</g>
</g>
<g>
	<defs>
		<path id="SVGID_9_" d="M25.914,22.194l-0.021-0.041c-0.403-0.825-0.587-2.115-0.432-3.16v-0.039h0.001
			c0.162-1.368,1.028-2.769,1.721-3.277c0.008-0.006,0.018-0.013,0.027-0.021v-0.003h0.002c0.154-0.172,0.592-0.53,0.888-0.747
			c-1.093-1.634-2.882-2.516-4.704-2.544c-1.838-0.157-3.744,1.182-4.773,1.152c-0.995,0.031-2.498-1.178-4.083-1.102l-0.016-0.002
			c-0.036,0-0.321,0.016-0.321,0.016c-2.102,0.053-3.965,1.312-5.023,3.221v0.006H9.174v-0.006
			c-0.419,0.688-0.921,2.292-0.996,3.307v0.054c-0.101,0.644-0.003,2.36,0.11,3.186c0.005,0.015,0.006,0.029,0.007,0.041
			l0.002-0.002c0.089,0.823,0.5,2.413,0.808,3.19v0.007H9.104c0.296,0.859,1.122,2.47,1.656,3.294v0.006h0.006
			c1.077,1.573,2.346,3.34,4.018,3.264c1.615-0.062,2.21-1.091,4.156-1.075c1.945-0.016,2.483,1.026,4.187,1.033
			c1.737-0.076,2.814-1.647,3.892-3.222c0.528-0.811,1.356-2.373,1.648-3.3h0.004c0.033-0.098,0.082-0.249,0.117-0.358
			C27.645,24.743,26.363,23.213,25.914,22.194"/>
	</defs>
	<clipPath id="SVGID_10_">
		<use xlink:href="#SVGID_9_"  style="overflow:visible;"/>
	</clipPath>
	<g class="st4">
		<defs>
			<rect id="SVGID_11_" width="130" height="40"/>
		</defs>
		<clipPath id="SVGID_12_">
			<use xlink:href="#SVGID_11_"  style="overflow:visible;"/>
		</clipPath>
		<rect x="3.136" y="7.351" class="st5" width="30.652" height="29.646"/>
	</g>
</g>
<g>
	<defs>
		<rect id="SVGID_13_" width="130" height="40"/>
	</defs>
	<clipPath id="SVGID_14_">
		<use xlink:href="#SVGID_13_"  style="overflow:visible;"/>
	</clipPath>
	<g class="st6">
		<text transform="matrix(1 0 0 1 39 14)"><tspan x="0" y="0" class="st7 st8 st9">D</tspan><tspan x="6.7" y="0" class="st7 st8 st9">o</tspan><tspan x="12.12" y="0" class="st7 st8 st9">wnload on the</tspan></text>
	</g>
	<g class="st6">
		<text transform="matrix(1 0 0 1 39 31)"><tspan x="0" y="0" class="st7 st10 st11">A</tspan><tspan x="11.376" y="0" class="st7 st10 st11">pp </tspan><tspan x="36.161" y="0" class="st7 st10 st11">S</tspan><tspan x="45.449" y="0" class="st7 st10 st11">t</tspan><tspan x="51.677" y="0" class="st7 st10 st11">o</tspan><tspan x="61.829" y="0" class="st7 st10 st11">r</tspan><tspan x="68.093" y="0" class="st7 st10 st11">e</tspan></text>
	</g>
</g>
</svg>
