<?xml version="1.0" encoding="UTF-8"?>
<svg width="24px" height="24px" viewBox="0 0 24 24" version="1.1" xmlns="http://www.w3.org/2000/svg" xmlns:xlink="http://www.w3.org/1999/xlink">
    <!-- Generator: Sketch 42 (36781) - http://www.bohemiancoding.com/sketch -->
    <title>Fill</title>
    <desc>Created with Sketch.</desc>
    <defs></defs>
    <g id="/Twitter連携対応" stroke="none" stroke-width="1" fill="none" fill-rule="evenodd">
        <g id="friend_add_fb_empty" transform="translate(-176.000000, -168.000000)" fill="#FFFFFF">
            <g id="Group" transform="translate(156.000000, 148.000000)">
                <path d="M42.6753393,20 L21.3246607,20 C20.5928646,20 20,20.5928646 20,21.3245708 L20,42.6754292 C20,43.4069556 20.5928646,44 21.3246607,44 L32.8191117,44 L32.8191117,34.7059732 L29.691488,34.7059732 L29.691488,31.083861 L32.8191117,31.083861 L32.8191117,28.4126882 C32.8191117,25.3127609 34.7123577,23.6248098 37.4777702,23.6248098 C38.802341,23.6248098 39.9407705,23.7234558 40.2726775,23.7675182 L40.2726775,27.0070965 L38.3546127,27.0079957 C36.8507347,27.0079957 36.559563,27.7226165 36.559563,28.7713025 L36.559563,31.083861 L40.1462453,31.083861 L39.6791835,34.7059732 L36.559563,34.7059732 L36.559563,44 L42.6753393,44 C43.4068656,44 43.9999101,43.4069556 43.9999101,42.6754292 L43.9999101,21.3245708 C43.9999101,20.5928646 43.4068656,20 42.6753393,20" id="Fill"></path>
            </g>
        </g>
    </g>
</svg>