<svg xmlns="http://www.w3.org/2000/svg" xmlns:xlink="http://www.w3.org/1999/xlink" viewBox="0 0 24 20"><defs><style>.a{fill:#fff;}.b{mask:url(#a);}</style><mask id="a" x="0" y="0" width="24" height="19.52" maskUnits="userSpaceOnUse"><polygon class="a" points="24 20 0 20 0 0 24 0 24 20"/></mask></defs><title>icon_twi</title><g class="b"><path class="a" d="M8,20A14,14,0,0,0,22,5h0l2-3H21l2-3H20L17,0a5,5,0,0,0-5,5h0A14,14,0,0,1,2,1V3A5,5,0,0,0,3,7H1a5,5,0,0,0,4,5H3a5,5,0,0,0,5,3L1,17H0l8,2"/></g></svg>