<?xml version="1.0" encoding="utf-8"?>
<!-- Generator: Adobe Illustrator 21.0.2, SVG Export Plug-In . SVG Version: 6.00 Build 0)  -->
<svg version="1.1" id="レイヤー_1" xmlns="http://www.w3.org/2000/svg" xmlns:xlink="http://www.w3.org/1999/xlink" x="0px"
	 y="0px" viewBox="0 0 229.7 50.8" style="enable-background:new 0 0 229.7 50.8;" xml:space="preserve">
<style type="text/css">
	.st0{fill:#DEFF21;}
	.st1{fill:#00E5C1;}
</style>
<title>sunnychat</title>
<desc>Created with Sketch.</desc>
<path id="sun" class="st0" d="M220,0.6c0-0.3,0.3-0.6,0.6-0.6s0.6,0.3,0.6,0.6v2.2c0,0.3-0.3,0.6-0.6,0.6S220,3,220,2.7V0.6z
	 M226.2,2.6c0.2-0.2,0.6-0.2,0.8,0s0.2,0.6,0,0.8l-1.5,1.5c-0.2,0.2-0.6,0.2-0.8,0s-0.2-0.6,0-0.8L226.2,2.6z M229.2,8.4
	c0.3,0,0.6,0.3,0.6,0.6s-0.3,0.6-0.6,0.6H227c-0.3,0-0.6-0.3-0.6-0.6s0.3-0.6,0.6-0.6H229.2z M221.4,17.5c0,0.3-0.3,0.6-0.6,0.6
	s-0.6-0.3-0.6-0.6v-2.2c0-0.3,0.3-0.6,0.6-0.6s0.6,0.3,0.6,0.6V17.5z M215.2,15.5c-0.2,0.2-0.6,0.2-0.8,0s-0.2-0.6,0-0.8l1.5-1.5
	c0.2-0.2,0.6-0.2,0.8,0s0.2,0.6,0,0.8L215.2,15.5z M212.2,9.7c-0.3,0-0.6-0.3-0.6-0.6s0.3-0.6,0.6-0.6h2.2c0.3,0,0.6,0.3,0.6,0.6
	s-0.3,0.6-0.6,0.6H212.2z M214.2,3.5c-0.2-0.2-0.2-0.6,0-0.8s0.6-0.2,0.8,0l1.5,1.5c0.2,0.2,0.2,0.6,0,0.8c-0.2,0.2-0.6,0.2-0.8,0
	L214.2,3.5z M225.3,13.9l-2.2-0.7c-0.7,0.4-1.6,0.7-2.5,0.7c-2.6,0-4.6-2.1-4.6-4.6c0-2.6,2.1-4.6,4.6-4.6c2.6,0,4.6,2.1,4.6,4.6
	c0,0.8-0.2,1.6-0.6,2.3L225.3,13.9z"/>
<path class="st1" d="M196.9,22.6c-0.5,0-0.9-0.2-1.2-0.5c-0.3-0.4-0.5-0.8-0.5-1.2c0-0.5,0.2-0.9,0.5-1.2c0.3-0.4,0.8-0.5,1.2-0.5
	h2.7c0.3,0,0.4-0.1,0.4-0.4v-5.6c0-0.6,0.2-1.2,0.6-1.6c0.4-0.4,0.9-0.7,1.5-0.7s1.1,0.2,1.6,0.7c0.4,0.4,0.7,1,0.7,1.6v5.6
	c0,0.3,0.1,0.4,0.4,0.4h6.1c0.5,0,0.9,0.2,1.2,0.5c0.3,0.4,0.5,0.8,0.5,1.2c0,0.5-0.2,0.9-0.5,1.2c-0.3,0.4-0.8,0.5-1.2,0.5h-6.1
	c-0.3,0-0.4,0.1-0.4,0.4v10c0,1.9,0.2,3.2,0.7,3.8s1.4,1,2.7,1c0.9,0,1.7-0.1,2.2-0.2c0.4-0.1,0.8-0.1,1.3,0.1
	c0.4,0.2,0.7,0.5,0.7,1c0.1,0.5,0,0.9-0.3,1.4c-0.3,0.4-0.6,0.7-1.1,0.8c-1.2,0.3-2.4,0.4-3.5,0.4c-2.5,0-4.4-0.6-5.5-1.7
	c-1.1-1.1-1.7-3-1.7-5.7V23c0-0.3-0.1-0.4-0.4-0.4H196.9z M183.6,29.7c-2.6,0-4.6,0.4-6,1.3s-2.1,2.1-2.1,3.6c0,1.1,0.3,1.9,1,2.5
	s1.5,0.9,2.6,0.9c1.8,0,3.4-0.6,4.8-1.9c1.3-1.3,2-2.8,2-4.6V30c0-0.3-0.1-0.4-0.4-0.4h-1.9V29.7z M178,41.3c-2.1,0-3.7-0.6-4.9-1.7
	c-1.2-1.2-1.8-2.7-1.8-4.7c0-2.5,1.1-4.5,3.2-6.1c2.1-1.5,5.2-2.3,9.2-2.3h1.8c0.3,0,0.4-0.1,0.4-0.4c0-1.8-0.4-3-1.1-3.7
	c-0.7-0.7-2-1.1-3.9-1.1c-2.1,0-4.1,0.4-6,1.2c-0.4,0.2-0.8,0.2-1.2,0s-0.6-0.5-0.7-1c-0.1-0.5,0-1,0.2-1.5s0.6-0.8,1.1-1
	c2.1-0.8,4.3-1.2,6.6-1.2c3.3,0,5.7,0.7,7.2,2s2.2,3.4,2.2,6.3v8.7c0,1.1,0.1,2.5,0.3,4c0.1,0.5-0.1,1-0.4,1.4
	c-0.3,0.4-0.8,0.6-1.3,0.6c-0.6,0-1.2-0.2-1.6-0.6c-0.5-0.4-0.7-0.9-0.8-1.5c0-0.1,0-0.4,0-0.7s0-0.5,0-0.7l0,0c-0.1,0-0.1,0-0.1,0
	c-0.8,1.2-1.9,2.2-3.4,2.8C181.3,40.9,179.7,41.3,178,41.3L178,41.3z M150.9,40.2c-0.4,0.4-0.9,0.6-1.5,0.6s-1.1-0.2-1.5-0.6
	c-0.4-0.4-0.6-0.9-0.6-1.5V10.5c0-0.6,0.2-1.1,0.6-1.5c0.4-0.4,0.9-0.6,1.5-0.6s1.1,0.2,1.5,0.6c0.4,0.4,0.6,0.9,0.6,1.5v10.8l0,0
	h0.1c2-2.3,4.4-3.4,7.3-3.4c4.9,0,7.4,3.3,7.4,10v10.9c0,0.6-0.2,1.1-0.6,1.5c-0.4,0.4-0.9,0.6-1.5,0.6s-1.1-0.2-1.5-0.6
	c-0.4-0.4-0.6-0.9-0.6-1.5V28.3c0-2.6-0.3-4.4-1-5.4s-1.9-1.5-3.7-1.5c-1.6,0-2.9,0.8-4.1,2.3c-1.2,1.5-1.8,3.2-1.8,5v10
	C151.5,39.3,151.3,39.8,150.9,40.2L150.9,40.2z M134.4,41.3c-3.4,0-6.2-1.1-8.3-3.2c-2.1-2.1-3.2-5-3.2-8.5c0-3.7,1-6.5,3-8.6
	s4.8-3.1,8.5-3.1c1.8,0,3.7,0.3,5.5,0.9c0.5,0.1,0.8,0.5,1,0.9c0.2,0.5,0.2,1,0.1,1.5c-0.1,0.5-0.4,0.8-0.9,1
	c-0.4,0.2-0.9,0.2-1.3,0c-1.3-0.5-2.7-0.7-4.2-0.8c-2.2,0-4,0.7-5.3,2.1s-1.9,3.4-1.9,6c0,2.5,0.7,4.6,2,6c1.4,1.5,3.1,2.2,5.1,2.2
	c1.4,0,2.8-0.3,4.2-0.8c0.5-0.2,0.9-0.2,1.3,0c0.4,0.2,0.7,0.5,0.8,1s0.1,1-0.1,1.5c-0.2,0.5-0.6,0.8-1.1,0.9
	C138.1,41,136.2,41.3,134.4,41.3L134.4,41.3z M101.2,47.2c1.6-0.1,2.9-0.7,3.9-1.5c0.9-0.9,1.8-2.4,2.6-4.5c0.1-0.2,0.1-0.4,0-0.6
	l-7.9-20c-0.2-0.5-0.1-1,0.2-1.5c0.3-0.5,0.8-0.7,1.4-0.7c0.8,0,1.4,0.2,2,0.6s1,1,1.2,1.7l5.4,15l0,0l0,0l5.1-15.1
	c0.2-0.7,0.6-1.2,1.2-1.6s1.2-0.6,1.9-0.6c0.5,0,1,0.2,1.3,0.7s0.4,1,0.2,1.5l-7.6,20.3c-1.3,3.6-2.8,6.1-4.4,7.5s-3.7,2.2-6.5,2.4
	c-0.5,0-0.9-0.1-1.3-0.5c-0.4-0.3-0.6-0.7-0.6-1.2s0.1-0.9,0.5-1.2C100.3,47.5,100.7,47.3,101.2,47.2L101.2,47.2z M79.6,40.2
	c-0.4,0.4-0.9,0.6-1.5,0.6s-1.1-0.2-1.5-0.6c-0.4-0.4-0.6-0.9-0.6-1.5V20.4c0-0.6,0.2-1.1,0.6-1.5s0.9-0.6,1.4-0.6
	c0.6,0,1,0.2,1.5,0.6c0.4,0.4,0.7,0.9,0.7,1.5v1.1l0,0h0.1c2-2.4,4.4-3.6,7.4-3.6c4.9,0,7.4,3.3,7.4,10v10.9c0,0.6-0.2,1.1-0.6,1.5
	s-0.9,0.6-1.5,0.6s-1.1-0.2-1.5-0.6c-0.4-0.4-0.6-0.9-0.6-1.5V28.3c0-2.6-0.3-4.4-1-5.4s-1.9-1.5-3.7-1.5c-1.5,0-2.8,0.7-4,2.2
	s-1.8,3.2-1.8,5.1v10C80.2,39.3,80,39.8,79.6,40.2L79.6,40.2z M54.5,40.2c-0.4,0.4-0.9,0.6-1.5,0.6s-1.1-0.2-1.5-0.6
	c-0.4-0.4-0.6-0.9-0.6-1.5V20.4c0-0.6,0.2-1.1,0.6-1.5c0.4-0.4,0.9-0.6,1.4-0.6c0.6,0,1,0.2,1.5,0.6c0.4,0.4,0.7,0.9,0.7,1.5v1.1
	l0,0h0.1c2-2.4,4.4-3.6,7.4-3.6c4.9,0,7.4,3.3,7.4,10v10.9c0,0.6-0.2,1.1-0.6,1.5s-0.9,0.6-1.5,0.6s-1.1-0.2-1.5-0.6
	c-0.4-0.4-0.6-0.9-0.6-1.5V28.3c0-2.6-0.3-4.4-1-5.4s-1.9-1.5-3.7-1.5c-1.5,0-2.8,0.7-4,2.2s-1.8,3.2-1.8,5.1v10
	C55.1,39.3,54.9,39.8,54.5,40.2L54.5,40.2z M32.8,41.3c-2.3,0-4.1-0.7-5.2-2.1c-1.1-1.4-1.7-3.6-1.7-6.6V20.4c0-0.6,0.2-1.1,0.6-1.5
	s0.9-0.6,1.5-0.6s1.1,0.2,1.5,0.6s0.6,0.9,0.6,1.5v11.7c0,2.1,0.3,3.5,1,4.3s1.7,1.2,3.2,1.2s2.8-0.7,4.1-2.1
	c1.2-1.4,1.8-3.1,1.8-5.1v-10c0-0.6,0.2-1.1,0.6-1.5c0.4-0.4,0.9-0.6,1.5-0.6s1.1,0.2,1.5,0.6s0.6,0.9,0.6,1.5v18.4
	c0,0.5-0.2,1-0.6,1.4c-0.4,0.4-0.9,0.6-1.5,0.6c-0.5,0-1-0.2-1.4-0.6c-0.4-0.4-0.6-0.9-0.7-1.4v-1.2l0,0h-0.1
	C38.2,40.1,35.7,41.3,32.8,41.3L32.8,41.3z M10,26.5c-3.5-1-6-2.3-7.6-3.9C0.8,21.1,0,19.2,0,17c0-2.5,0.9-4.5,2.7-6S7,8.7,10.2,8.7
	c2.6,0,5.1,0.4,7.6,1.3c0.5,0.2,0.9,0.5,1.1,1s0.3,1,0.1,1.5c-0.1,0.5-0.4,0.8-0.9,1s-0.9,0.3-1.4,0.1c-2-0.7-4.2-1.1-6.5-1.1
	c-1.8,0-3.1,0.4-4.1,1.2s-1.4,1.9-1.4,3.2c0,2.4,1.8,4.1,5.3,5.2c3.8,1.1,6.5,2.4,8.1,4c1.6,1.6,2.4,3.6,2.4,6.2
	c0,2.9-0.9,5.1-2.8,6.6c-1.8,1.5-4.5,2.3-7.9,2.3c-2.8,0-5.4-0.6-8-1.7c-0.5-0.2-0.9-0.6-1.1-1.2c-0.2-0.6-0.2-1.1,0-1.7
	c0.2-0.5,0.5-0.8,1-1s1-0.2,1.4,0.1c2.1,1,4.3,1.6,6.7,1.6c1.9,0,3.3-0.4,4.4-1.3c1-0.9,1.5-2.1,1.5-3.7c0-1.5-0.4-2.7-1.2-3.5
	C13.6,28,12.2,27.2,10,26.5L10,26.5z"/>
</svg>
