<?xml version="1.0" encoding="utf-8"?>
<!-- Generator: Adobe Illustrator 21.0.2, SVG Export Plug-In . SVG Version: 6.00 Build 0)  -->
<svg version="1.1" id="レイヤー_1" xmlns="http://www.w3.org/2000/svg" xmlns:xlink="http://www.w3.org/1999/xlink" x="0px"
	 y="0px" viewBox="0 0 240 52" style="enable-background:new 0 0 240 52;" xml:space="preserve">
<style type="text/css">
	.st0{fill:#FFFFFF;}
</style>
<path class="st0" d="M240,28.3c-0.5,9.2-6.3,14.7-16.2,14.7c-1.7,0-1.6,0-3.4-0.1l-0.5,9.1h-8.6l1.9-36.3c5.1-0.3,6.9-0.4,11.3-0.4
	C233.8,15.2,240.4,20.5,240,28.3z M224.6,22.7c-1.1,0-1.7,0-3.2,0.1l-0.7,12.7c1.1,0,1.5,0.1,2.8,0.1c3.8,0,7.7-1.8,8-7
	C231.7,24.6,228.1,22.7,224.6,22.7z M204,13.3c-2.7,0-4.9-2.2-4.7-4.8c0.1-2.8,2.5-4.9,5.2-4.9c2.6,0,4.8,2.2,4.7,4.9
	C209,11.1,206.6,13.3,204,13.3z M208.1,15.9l-1.4,26.5h-8.6l1.4-26.5H208.1z M193.4,42.5h-8.6l0.9-16.1c0.1-2.2-0.7-3.6-3.7-3.6
	c-1.3,0-2.5,0.1-4.4,0.3l-1,19.4h-8.6l2-38.2h8.6L178,15.3c2-0.3,3.3-0.4,5.9-0.4c6.3,0,10.9,2.7,10.4,11.1L193.4,42.5z M155.6,25.6
	c7.7,1.5,10,4.4,9.7,8.7c-0.4,6-5.2,8.7-12.1,8.7c-3.4,0-7.1-0.8-9.5-2.2l0.4-7.1c2.7,1.8,6.6,2.7,9.2,2.7c1.9,0,3.9-0.4,4-1.8
	c0.1-1.3-1.3-1.9-3.9-2.3c-6.8-1.1-9.5-3.8-9.2-8.2c0.4-6.3,5.5-9.1,11.8-9.1c3.6,0,5.9,0.7,8.3,2l-0.4,7c-2.6-1.7-5.2-2.4-7.9-2.4
	c-2.4,0-3.7,0.7-3.8,1.7C152.2,24.5,153.6,25.2,155.6,25.6z M131.4,23.1l-1,19.4h-8.8l1.4-26.6c4.7-1.2,13-1.5,18.8-0.2l-0.4,7.8
	C138.2,22.7,134.7,22.6,131.4,23.1z M118.6,32h-18.2c0.2,2.8,3.4,4.6,7.2,4.6c3.6,0,6-0.5,9.8-1.9l-0.3,5.9
	c-2.6,1.7-6.5,2.4-10.2,2.4c-9.2,0-15.2-4.9-14.7-13.8c0.5-9.4,6.7-14.3,14.7-14.3c9.6,0,12.2,7.2,11.8,14.2L118.6,32z M106.9,21.5
	c-3.8,0-5.8,2.3-6.3,4.9h10.8C111.5,24.3,110.4,21.5,106.9,21.5z M73.7,42.9c-1.7,0-1.6,0-3.4-0.1L69.7,52h-8.6L63,15.7
	c5.1-0.3,6.9-0.4,11.3-0.4c9.4,0,16,5.2,15.6,13C89.4,37.4,83.6,42.9,73.7,42.9z M74.5,22.7c-1.1,0-1.7,0-3.2,0.1l-0.7,12.7
	c1.1,0,1.5,0.1,2.8,0.1c3.8,0,7.7-1.8,8-7C81.6,24.6,78,22.7,74.5,22.7z M45.2,43.1c-8.1,0-13.2-2.3-12.8-10.7l0.9-16.8h8.6l-0.9,16
	c-0.2,2.9,0.4,4.4,4.1,4.4c1.5,0,2.3,0,3.2-0.1l1.1-20.4h8.6l-1.4,27.1C52.8,42.9,49.3,43.1,45.2,43.1z M28.7,29.7
	c-0.5,8.9-8.1,12.8-17.1,12.8c-4.7,0-9-1.2-11.7-2.9L0.5,30C4,32.3,7.3,33.8,12,33.8c3.2,0,6.5-1.1,6.6-3.8c0.1-2.5-2.4-4.1-6.6-5.2
	C3.5,22.5,0.3,17.7,0.6,12.7C1.1,4.6,7.6,0,16,0c5.1,0,8.5,1.2,11.6,3L27,12.6c-3.6-2.4-6.7-3.9-11.1-3.9c-3.2,0-5.3,1.5-5.4,3.4
	c-0.1,2.6,2.7,4.2,7.1,5.3C26,19.6,29,24.2,28.7,29.7z"/>
</svg>
